<?xml version="1.0" encoding="utf-8"?>
<svg width="16" height="16" fill="currentColor" class="bi bi-x" viewBox="0 0 16 16" xmlns="http://www.w3.org/2000/svg">
  <path d="M 0.531 0.531 C 0.962 0.1 1.66 0.1 2.09 0.531 L 7.914 6.358 L 13.74 0.531 C 14.34 -0.068 15.364 0.206 15.583 1.025 C 15.686 1.405 15.576 1.811 15.298 2.09 L 9.472 7.914 L 15.298 13.74 C 15.898 14.34 15.624 15.364 14.805 15.583 C 14.425 15.686 14.019 15.576 13.74 15.298 L 7.914 9.472 L 2.09 15.298 C 1.49 15.898 0.466 15.624 0.247 14.805 C 0.144 14.425 0.254 14.019 0.531 13.74 L 6.358 7.914 L 0.531 2.09 C 0.1 1.66 0.1 0.962 0.531 0.531 Z" style="fill: rgba(255, 0, 0, 0.8);"/>
</svg>